<?xml version="1.0" encoding="UTF-8" standalone="no"?>
<svg
   xmlns:dc="http://purl.org/dc/elements/1.1/"
   xmlns:cc="http://creativecommons.org/ns#"
   xmlns:rdf="http://www.w3.org/1999/02/22-rdf-syntax-ns#"
   xmlns:svg="http://www.w3.org/2000/svg"
   xmlns="http://www.w3.org/2000/svg"
   xmlns:sodipodi="http://sodipodi.sourceforge.net/DTD/sodipodi-0.dtd"
   xmlns:inkscape="http://www.inkscape.org/namespaces/inkscape"
   height="299.99997pt"
   viewBox="0 0 299.99997 299.99997"
   width="299.99997pt"
   version="1.1"
   id="svg4"
   sodipodi:docname="mpsoc-noc.svg"
   inkscape:version="0.92.4 5da689c313, 2019-01-14">
  <metadata
     id="metadata10">
    <rdf:RDF>
      <cc:Work
         rdf:about="">
        <dc:format>image/svg+xml</dc:format>
        <dc:type
           rdf:resource="http://purl.org/dc/dcmitype/StillImage" />
        <dc:title></dc:title>
      </cc:Work>
    </rdf:RDF>
  </metadata>
  <defs
     id="defs8" />
  <sodipodi:namedview
     pagecolor="#ffffff"
     bordercolor="#666666"
     borderopacity="1"
     objecttolerance="10"
     gridtolerance="10"
     guidetolerance="10"
     inkscape:pageopacity="0"
     inkscape:pageshadow="2"
     inkscape:window-width="1533"
     inkscape:window-height="845"
     id="namedview6"
     showgrid="false"
     inkscape:zoom="0.5"
     inkscape:cx="-178.16976"
     inkscape:cy="128.2362"
     inkscape:window-x="67"
     inkscape:window-y="27"
     inkscape:window-maximized="1"
     inkscape:current-layer="svg4"
     fit-margin-top="0"
     fit-margin-left="0"
     fit-margin-right="0"
     fit-margin-bottom="0" />
  <path
     d="m 291.21093,0 h -52.73437 c -4.85688,0 -8.78907,3.93219 -8.78907,8.78906 V 26.36719 H 185.15624 V 8.78906 C 185.15624,3.93219 181.22405,0 176.36718,0 h -52.73437 c -4.85687,0 -8.78906,3.93219 -8.78906,8.78906 V 26.36719 H 70.312498 V 8.78906 C 70.312498,3.93219 66.380308,0 61.523436,0 H 8.7890622 C 3.9321901,0 0,3.93219 0,8.78906 v 52.73437 c 0,4.85688 3.9321901,8.78907 8.7890622,8.78907 H 26.367187 v 44.53125 H 8.7890622 C 3.9321901,114.84375 0,118.77594 0,123.63281 v 52.73437 c 0,4.85687 3.9321901,8.78906 8.7890622,8.78906 H 26.367187 v 44.53125 H 8.7890622 C 3.9321901,229.68749 0,233.61968 0,238.47655 v 52.73438 c 0,4.85687 3.9321901,8.78906 8.7890622,8.78906 H 61.523436 c 4.856872,0 8.789062,-3.93219 8.789062,-8.78906 V 273.6328 h 44.531252 v 17.57813 c 0,4.85687 3.93219,8.78906 8.78906,8.78906 h 52.73437 c 4.85687,0 8.78906,-3.93219 8.78906,-8.78906 V 273.6328 h 44.53125 v 17.57813 c 0,4.85687 3.93219,8.78906 8.78907,8.78906 h 52.73437 c 4.85687,0 8.78906,-3.93219 8.78906,-8.78906 v -52.73438 c 0,-4.85687 -3.93219,-8.78906 -8.78906,-8.78906 H 273.6328 v -44.53125 h 17.57813 c 4.85687,0 8.78906,-3.93219 8.78906,-8.78906 v -52.73437 c 0,-4.85687 -3.93219,-8.78906 -8.78906,-8.78906 H 273.6328 V 70.3125 h 17.57813 c 4.85687,0 8.78906,-3.93219 8.78906,-8.78907 V 8.78906 C 299.99999,3.93219 296.0678,0 291.21093,0 Z M 43.945311,70.3125 h 17.578125 c 4.856872,0 8.789062,-3.93219 8.789062,-8.78907 V 43.94531 h 44.531252 v 17.57812 c 0,4.85688 3.93219,8.78907 8.78906,8.78907 h 17.57812 v 44.53125 h -17.57812 c -4.85687,0 -8.78906,3.93219 -8.78906,8.78906 v 17.57812 H 70.312498 v -17.57812 c 0,-4.85687 -3.93219,-8.78906 -8.789062,-8.78906 H 43.945311 Z m 26.367187,185.74218 v -17.57813 c 0,-4.85687 -3.93219,-8.78906 -8.789062,-8.78906 H 43.945311 v -44.53125 h 17.578125 c 4.856872,0 8.789062,-3.93219 8.789062,-8.78906 v -17.57812 h 44.531252 v 17.57812 c 0,4.85687 3.93219,8.78906 8.78906,8.78906 h 17.57812 v 44.53125 h -17.57812 c -4.85687,0 -8.78906,3.93219 -8.78906,8.78906 v 17.57813 z M 256.05468,229.68749 h -17.57812 c -4.85688,0 -8.78907,3.93219 -8.78907,8.78906 v 17.57813 h -44.53125 v -17.57813 c 0,-4.85687 -3.93219,-8.78906 -8.78906,-8.78906 h -17.57812 v -44.53125 h 17.57812 c 4.85687,0 8.78906,-3.93219 8.78906,-8.78906 v -17.57812 h 44.53125 v 17.57812 c 0,4.85687 3.93219,8.78906 8.78907,8.78906 h 17.57812 z m 0,-114.84374 h -17.57812 c -4.85688,0 -8.78907,3.93219 -8.78907,8.78906 v 17.57812 h -44.53125 v -17.57812 c 0,-4.85687 -3.93219,-8.78906 -8.78906,-8.78906 H 158.78906 V 70.3125 h 17.57812 c 4.85687,0 8.78906,-3.93219 8.78906,-8.78907 V 43.94531 h 44.53125 v 17.57812 c 0,4.85688 3.93219,8.78907 8.78907,8.78907 h 17.57812 z m 0,0"
     id="path2"
     inkscape:connector-curvature="0"
     style="stroke-width:0.5859375" />
</svg>
