<?xml version="1.0" encoding="UTF-8" standalone="no"?>
<!DOCTYPE svg PUBLIC "-//W3C//DTD SVG 1.1//EN"
 "http://www.w3.org/Graphics/SVG/1.1/DTD/svg11.dtd">
<!-- Generated by graphviz version 2.40.1 (20161225.0304)
 -->
<!-- Title: Project Pages: 1 -->
<svg width="1664pt" height="109pt"
 viewBox="0.00 0.00 1664.00 109.00" xmlns="http://www.w3.org/2000/svg" xmlns:xlink="http://www.w3.org/1999/xlink">
<g id="graph0" class="graph" transform="scale(1 1) rotate(0) translate(4 105)">
<title>Project</title>
<polygon fill="#ffffff" stroke="transparent" points="-4,4 -4,-105 1660,-105 1660,4 -4,4"/>
<!-- Requirements -->
<g id="node1" class="node">
<title>Requirements</title>
<polygon fill="none" stroke="#000000" points="0,-14.5 0,-52.5 96,-52.5 96,-14.5 0,-14.5"/>
<text text-anchor="middle" x="48" y="-37.3" font-family="Times,serif" font-size="14.00" fill="#000000">Requirements </text>
<text text-anchor="middle" x="48" y="-22.3" font-family="Times,serif" font-size="14.00" fill="#000000">(UML) [Dot]</text>
</g>
<!-- Software -->
<g id="node2" class="node">
<title>Software</title>
<polygon fill="none" stroke="#000000" points="132,-62.5 132,-100.5 275,-100.5 275,-62.5 132,-62.5"/>
<text text-anchor="middle" x="203.5" y="-85.3" font-family="Times,serif" font-size="14.00" fill="#000000">Software </text>
<text text-anchor="middle" x="203.5" y="-70.3" font-family="Times,serif" font-size="14.00" fill="#000000">(Matlab/Rust) [Emacs]</text>
</g>
<!-- Requirements&#45;&gt;Software -->
<g id="edge1" class="edge">
<title>Requirements&#45;&gt;Software</title>
<path fill="none" stroke="#000000" d="M48,-52.7469C48,-66.1008 48,-81.5 48,-81.5 48,-81.5 121.6673,-81.5 121.6673,-81.5"/>
<polygon fill="#000000" stroke="#000000" points="121.6673,-85.0001 131.6673,-81.5 121.6672,-78.0001 121.6673,-85.0001"/>
</g>
<!-- Source -->
<g id="node3" class="node">
<title>Source</title>
<polygon fill="none" stroke="#000000" points="311,-62.5 311,-100.5 428,-100.5 428,-62.5 311,-62.5"/>
<text text-anchor="middle" x="369.5" y="-85.3" font-family="Times,serif" font-size="14.00" fill="#000000">Source </text>
<text text-anchor="middle" x="369.5" y="-70.3" font-family="Times,serif" font-size="14.00" fill="#000000">(ADA/C) [Emacs]</text>
</g>
<!-- Software&#45;&gt;Source -->
<g id="edge2" class="edge">
<title>Software&#45;&gt;Source</title>
<path fill="none" stroke="#000000" d="M275.3445,-81.5C275.3445,-81.5 300.7711,-81.5 300.7711,-81.5"/>
<polygon fill="#000000" stroke="#000000" points="300.7712,-85.0001 310.7711,-81.5 300.7711,-78.0001 300.7712,-85.0001"/>
</g>
<!-- Model -->
<g id="node4" class="node">
<title>Model</title>
<polygon fill="none" stroke="#000000" points="464,-62.5 464,-100.5 622,-100.5 622,-62.5 464,-62.5"/>
<text text-anchor="middle" x="543" y="-85.3" font-family="Times,serif" font-size="14.00" fill="#000000">Model </text>
<text text-anchor="middle" x="543" y="-70.3" font-family="Times,serif" font-size="14.00" fill="#000000">(VHDL/Verilog) [Emacs]</text>
</g>
<!-- Source&#45;&gt;Model -->
<g id="edge3" class="edge">
<title>Source&#45;&gt;Model</title>
<path fill="none" stroke="#000000" d="M428.2392,-81.5C428.2392,-81.5 453.7075,-81.5 453.7075,-81.5"/>
<polygon fill="#000000" stroke="#000000" points="453.7075,-85.0001 463.7075,-81.5 453.7074,-78.0001 453.7075,-85.0001"/>
</g>
<!-- Validation -->
<g id="node5" class="node">
<title>Validation</title>
<polygon fill="none" stroke="#000000" points="658,-24.5 658,-62.5 906,-62.5 906,-24.5 658,-24.5"/>
<text text-anchor="middle" x="782" y="-47.3" font-family="Times,serif" font-size="14.00" fill="#000000">Validation </text>
<text text-anchor="middle" x="782" y="-32.3" font-family="Times,serif" font-size="14.00" fill="#000000">(VHDL/Verilog) [GHDL / Icarus Verilog]</text>
</g>
<!-- Model&#45;&gt;Validation -->
<g id="edge4" class="edge">
<title>Model&#45;&gt;Validation</title>
<path fill="none" stroke="#000000" d="M543,-62.1274C543,-59.3984 543,-57.5 543,-57.5 543,-57.5 647.9497,-57.5 647.9497,-57.5"/>
<polygon fill="#000000" stroke="#000000" points="647.9497,-61.0001 657.9497,-57.5 647.9497,-54.0001 647.9497,-61.0001"/>
</g>
<!-- Validation&#45;&gt;Requirements -->
<g id="edge9" class="edge">
<title>Validation&#45;&gt;Requirements</title>
<path fill="none" stroke="#000000" d="M657.9022,-38.5C657.9022,-38.5 106.3374,-38.5 106.3374,-38.5"/>
<polygon fill="#000000" stroke="#000000" points="106.3374,-35.0001 96.3374,-38.5 106.3374,-42.0001 106.3374,-35.0001"/>
</g>
<!-- Design -->
<g id="node6" class="node">
<title>Design</title>
<polygon fill="none" stroke="#000000" points="942,-24.5 942,-62.5 1100,-62.5 1100,-24.5 942,-24.5"/>
<text text-anchor="middle" x="1021" y="-47.3" font-family="Times,serif" font-size="14.00" fill="#000000">Design </text>
<text text-anchor="middle" x="1021" y="-32.3" font-family="Times,serif" font-size="14.00" fill="#000000">(VHDL/Verilog) [Emacs]</text>
</g>
<!-- Validation&#45;&gt;Design -->
<g id="edge5" class="edge">
<title>Validation&#45;&gt;Design</title>
<path fill="none" stroke="#000000" d="M906.0503,-43.5C906.0503,-43.5 931.8424,-43.5 931.8424,-43.5"/>
<polygon fill="#000000" stroke="#000000" points="931.8424,-47.0001 941.8424,-43.5 931.8424,-40.0001 931.8424,-47.0001"/>
</g>
<!-- Verification -->
<g id="node7" class="node">
<title>Verification</title>
<polygon fill="none" stroke="#000000" points="1136,-.5 1136,-38.5 1384,-38.5 1384,-.5 1136,-.5"/>
<text text-anchor="middle" x="1260" y="-23.3" font-family="Times,serif" font-size="14.00" fill="#000000">Verification </text>
<text text-anchor="middle" x="1260" y="-8.3" font-family="Times,serif" font-size="14.00" fill="#000000">(VHDL/Verilog) [GHDL / Icarus Verilog]</text>
</g>
<!-- Design&#45;&gt;Verification -->
<g id="edge6" class="edge">
<title>Design&#45;&gt;Verification</title>
<path fill="none" stroke="#000000" d="M1100.2516,-31.5C1100.2516,-31.5 1125.6682,-31.5 1125.6682,-31.5"/>
<polygon fill="#000000" stroke="#000000" points="1125.6682,-35.0001 1135.6682,-31.5 1125.6681,-28.0001 1125.6682,-35.0001"/>
</g>
<!-- Verification&#45;&gt;Requirements -->
<g id="edge10" class="edge">
<title>Verification&#45;&gt;Requirements</title>
<path fill="none" stroke="#000000" d="M1135.9905,-19C1135.9905,-19 106.0116,-19 106.0116,-19"/>
<polygon fill="#000000" stroke="#000000" points="106.0116,-15.5001 96.0116,-19 106.0115,-22.5001 106.0116,-15.5001"/>
</g>
<!-- Certification -->
<g id="node8" class="node">
<title>Certification</title>
<polygon fill="none" stroke="#000000" points="1420,-.5 1420,-38.5 1516,-38.5 1516,-.5 1420,-.5"/>
<text text-anchor="middle" x="1468" y="-23.3" font-family="Times,serif" font-size="14.00" fill="#000000">Certification </text>
<text text-anchor="middle" x="1468" y="-8.3" font-family="Times,serif" font-size="14.00" fill="#000000">(Tex) [Emacs]</text>
</g>
<!-- Verification&#45;&gt;Certification -->
<g id="edge7" class="edge">
<title>Verification&#45;&gt;Certification</title>
<path fill="none" stroke="#000000" d="M1384.2975,-19.5C1384.2975,-19.5 1409.7987,-19.5 1409.7987,-19.5"/>
<polygon fill="#000000" stroke="#000000" points="1409.7988,-23.0001 1419.7987,-19.5 1409.7987,-16.0001 1409.7988,-23.0001"/>
</g>
<!-- Documentation -->
<g id="node9" class="node">
<title>Documentation</title>
<polygon fill="none" stroke="#000000" points="1552,-.5 1552,-38.5 1656,-38.5 1656,-.5 1552,-.5"/>
<text text-anchor="middle" x="1604" y="-23.3" font-family="Times,serif" font-size="14.00" fill="#000000">Documentation </text>
<text text-anchor="middle" x="1604" y="-8.3" font-family="Times,serif" font-size="14.00" fill="#000000">(Tex) [Emacs]</text>
</g>
<!-- Certification&#45;&gt;Documentation -->
<g id="edge8" class="edge">
<title>Certification&#45;&gt;Documentation</title>
<path fill="none" stroke="#000000" d="M1516.3314,-19.5C1516.3314,-19.5 1541.6711,-19.5 1541.6711,-19.5"/>
<polygon fill="#000000" stroke="#000000" points="1541.6711,-23.0001 1551.6711,-19.5 1541.6711,-16.0001 1541.6711,-23.0001"/>
</g>
</g>
</svg>
