<?xml version="1.0" encoding="UTF-8" standalone="no"?>
<!DOCTYPE svg PUBLIC "-//W3C//DTD SVG 1.1//EN"
 "http://www.w3.org/Graphics/SVG/1.1/DTD/svg11.dtd">
<!-- Generated by graphviz version 2.43.0 (0)
 -->
<!-- Title: Project Pages: 1 -->
<svg width="879pt" height="47pt"
 viewBox="0.00 0.00 879.00 47.00" xmlns="http://www.w3.org/2000/svg" xmlns:xlink="http://www.w3.org/1999/xlink">
<g id="graph0" class="graph" transform="scale(1 1) rotate(0) translate(4 43)">
<title>Project</title>
<polygon fill="white" stroke="transparent" points="-4,4 -4,-43 875,-43 875,4 -4,4"/>
<!-- Requirements -->
<g id="node1" class="node">
<title>Requirements</title>
<polygon fill="none" stroke="black" points="0,-0.5 0,-38.5 122,-38.5 122,-0.5 0,-0.5"/>
<text text-anchor="middle" x="61" y="-23.3" font-family="Times,serif" font-size="14.00">Requirements </text>
<text text-anchor="middle" x="61" y="-8.3" font-family="Times,serif" font-size="14.00">(UML)</text>
</g>
<!-- Source -->
<g id="node2" class="node">
<title>Source</title>
<polygon fill="none" stroke="black" points="158,-0.5 158,-38.5 231,-38.5 231,-0.5 158,-0.5"/>
<text text-anchor="middle" x="194.5" y="-23.3" font-family="Times,serif" font-size="14.00">Source </text>
<text text-anchor="middle" x="194.5" y="-8.3" font-family="Times,serif" font-size="14.00">(ADA/C)</text>
</g>
<!-- Requirements&#45;&gt;Source -->
<g id="edge1" class="edge">
<title>Requirements&#45;&gt;Source</title>
<path fill="none" stroke="black" d="M122.28,-19.5C122.28,-19.5 147.97,-19.5 147.97,-19.5"/>
<polygon fill="black" stroke="black" points="147.97,-23 157.97,-19.5 147.97,-16 147.97,-23"/>
</g>
<!-- Model -->
<g id="node3" class="node">
<title>Model</title>
<polygon fill="none" stroke="black" points="267,-0.5 267,-38.5 391,-38.5 391,-0.5 267,-0.5"/>
<text text-anchor="middle" x="329" y="-23.3" font-family="Times,serif" font-size="14.00">Model </text>
<text text-anchor="middle" x="329" y="-8.3" font-family="Times,serif" font-size="14.00">(VHDL/Verilog)</text>
</g>
<!-- Source&#45;&gt;Model -->
<g id="edge2" class="edge">
<title>Source&#45;&gt;Model</title>
<path fill="none" stroke="black" d="M231.25,-19.5C231.25,-19.5 256.94,-19.5 256.94,-19.5"/>
<polygon fill="black" stroke="black" points="256.94,-23 266.94,-19.5 256.94,-16 256.94,-23"/>
</g>
<!-- Validation -->
<g id="node4" class="node">
<title>Validation</title>
<polygon fill="none" stroke="black" points="427,-0.5 427,-38.5 551,-38.5 551,-0.5 427,-0.5"/>
<text text-anchor="middle" x="489" y="-23.3" font-family="Times,serif" font-size="14.00">Validation </text>
<text text-anchor="middle" x="489" y="-8.3" font-family="Times,serif" font-size="14.00">(VHDL/Verilog)</text>
</g>
<!-- Model&#45;&gt;Validation -->
<g id="edge3" class="edge">
<title>Model&#45;&gt;Validation</title>
<path fill="none" stroke="black" d="M391.32,-13C391.32,-13 416.85,-13 416.85,-13"/>
<polygon fill="black" stroke="black" points="416.85,-16.5 426.85,-13 416.85,-9.5 416.85,-16.5"/>
</g>
<!-- Validation&#45;&gt;Model -->
<g id="edge6" class="edge">
<title>Validation&#45;&gt;Model</title>
<path fill="none" stroke="black" d="M426.68,-26C426.68,-26 401.15,-26 401.15,-26"/>
<polygon fill="black" stroke="black" points="401.15,-22.5 391.15,-26 401.15,-29.5 401.15,-22.5"/>
</g>
<!-- Design -->
<g id="node5" class="node">
<title>Design</title>
<polygon fill="none" stroke="black" points="587,-0.5 587,-38.5 711,-38.5 711,-0.5 587,-0.5"/>
<text text-anchor="middle" x="649" y="-23.3" font-family="Times,serif" font-size="14.00">Design </text>
<text text-anchor="middle" x="649" y="-8.3" font-family="Times,serif" font-size="14.00">(VHDL/Verilog)</text>
</g>
<!-- Validation&#45;&gt;Design -->
<g id="edge4" class="edge">
<title>Validation&#45;&gt;Design</title>
<path fill="none" stroke="black" d="M551.32,-19.5C551.32,-19.5 576.85,-19.5 576.85,-19.5"/>
<polygon fill="black" stroke="black" points="576.85,-23 586.85,-19.5 576.85,-16 576.85,-23"/>
</g>
<!-- Verification -->
<g id="node6" class="node">
<title>Verification</title>
<polygon fill="none" stroke="black" points="747,-0.5 747,-38.5 871,-38.5 871,-0.5 747,-0.5"/>
<text text-anchor="middle" x="809" y="-23.3" font-family="Times,serif" font-size="14.00">Verification </text>
<text text-anchor="middle" x="809" y="-8.3" font-family="Times,serif" font-size="14.00">(VHDL/Verilog)</text>
</g>
<!-- Design&#45;&gt;Verification -->
<g id="edge5" class="edge">
<title>Design&#45;&gt;Verification</title>
<path fill="none" stroke="black" d="M711.32,-13C711.32,-13 736.85,-13 736.85,-13"/>
<polygon fill="black" stroke="black" points="736.85,-16.5 746.85,-13 736.85,-9.5 736.85,-16.5"/>
</g>
<!-- Verification&#45;&gt;Design -->
<g id="edge7" class="edge">
<title>Verification&#45;&gt;Design</title>
<path fill="none" stroke="black" d="M746.68,-26C746.68,-26 721.15,-26 721.15,-26"/>
<polygon fill="black" stroke="black" points="721.15,-22.5 711.15,-26 721.15,-29.5 721.15,-22.5"/>
</g>
</g>
</svg>
